<svg xmlns="http://www.w3.org/2000/svg" viewBox="0 0 884.98 190.9">
<g fill="currentColor">
<path d="M857.68,0a26.92,26.92,0,0,0-27.3,27.29,27.3,27.3,0,1,0,54.59,0A26.92,26.92,0,0,0,857.68,0Zm0,3.89c13.21,0,23,10.34,23,23.41s-9.83,23.41-23,23.41-23-10.35-23-23.41S844.47,3.89,857.68,3.89Zm-6,25.17h6.53l8.88,14h4.54l-9.39-14c4.25-.73,7.92-3.23,7.92-8.8s-3.16-8.73-10.27-8.73H847.78V43.07h3.89Zm0-3.3V14.82h7.12c3.82,0,7.49,1,7.49,5.43,0,5.36-4.7,5.5-9.47,5.5h-5.14"/>
<path d="M725.92,11.26h54.87L731.36,147.07H847.53l-16,43.83h-171Zm-209.35,0H569L545.89,74.72h65.29l23.09-63.46h54L622.84,190.9H568.9L595.78,117H530.49L503.6,190.9H451.19ZM358,190.9h54.87L478.25,11.26H423.38Zm-128.13,0h54.56L333.87,55.1h56.71l16-43.84H239.17l-16,43.84h56.1ZM224.15,11.26H93.58c-18.65,0-31,11.95-36.82,27.9L39.47,86.67c-7.7,21.15,3.16,36.79,24,36.79h68a4.15,4.15,0,0,1,3.7,5.83l-4.35,12c-1.19,3.28-5.21,5.83-7.94,5.83H16L0,190.9H137.93c15.22,0,28.62-7,36.54-28.82l16.42-45.13c7.79-21.39-3.47-36.72-22.5-36.72H100c-3.79,0-5.13-2.76-3.9-6.13l4.35-12c1.45-4,4.44-7,9.31-7H208.2l16-43.84"/>
</g>
</svg>